<svg width="159" height="37" viewBox="0 0 159 37" fill="none" xmlns="http://www.w3.org/2000/svg">
<path fill-rule="evenodd" clip-rule="evenodd" d="M18.5256 0C28.7697 0 37.0905 8.30053 37.0905 18.4804C37.0905 28.6995 28.7697 37 18.5256 37C8.28158 37 0 28.6995 0 18.4804C0 8.30053 8.28158 0 18.5256 0Z" fill="#3A86FF"/>
<path fill-rule="evenodd" clip-rule="evenodd" d="M26.8464 21.9653C26.9249 22.0044 26.9642 22.0827 27.0427 22.1219C27.5922 22.67 27.8669 23.4139 27.8669 24.1578C27.8669 24.9409 27.5922 25.6457 27.0427 26.1938C26.4932 26.742 25.7867 27.016 25.0017 27.016C24.6092 27.016 24.256 26.9377 23.9027 26.8203L22.4898 27.6425C22.1365 27.8383 21.744 27.9166 21.3908 27.8774C21.273 28.5039 20.9983 29.052 20.5666 29.4827C20.0171 30.0309 19.3106 30.3441 18.5256 30.3441C17.7799 30.3441 17.0341 30.0309 16.4846 29.4827C16.0529 29.052 15.7782 28.5039 15.6997 27.8774C15.3072 27.9166 14.9539 27.8383 14.6007 27.6425L13.1877 26.8203C12.8345 26.9377 12.442 27.016 12.0495 27.016C11.3037 27.016 10.558 26.742 10.0478 26.1938C9.49828 25.6457 9.18429 24.9409 9.18429 24.1578C9.18429 23.4139 9.49828 22.67 10.0478 22.1219C10.087 22.0827 10.1655 22.0044 10.244 21.9653V19.8118V19.3028V17.2277L8.6348 16.2488C8.24231 16.0139 7.88906 15.7007 7.65357 15.3092C7.41807 14.9176 7.30033 14.4869 7.33958 14.0171C7.33958 13.5864 7.45732 13.1557 7.69282 12.8033C7.96756 12.3335 8.32081 11.9811 8.7918 11.7462L16.2884 7.24355C16.9164 6.89117 17.6621 6.6954 18.3686 6.65625C18.4079 6.65625 18.4863 6.65625 18.5256 6.65625C18.6041 6.65625 18.6433 6.65625 18.7218 6.65625C19.4283 6.6954 20.1741 6.89117 20.7628 7.24355L28.2986 11.7462C28.7304 11.9811 29.1229 12.3335 29.3976 12.8033C29.5939 13.1557 29.7509 13.5864 29.7509 14.0171C29.7509 14.4869 29.6331 14.9176 29.3976 15.3092C29.1621 15.7007 28.8481 16.0139 28.4556 16.2488L26.8464 17.2277V18.9113V19.8118V21.9653ZM18.5256 23.0615L15.3857 21.1822L14.5222 20.6732C14.2082 20.4774 13.8157 20.5949 13.6194 20.9081C13.4625 21.1822 13.5409 21.5737 13.8549 21.7695L17.8584 24.1187V25.9589C17.6621 26.0372 17.5051 26.1547 17.3481 26.2721C17.0341 26.5854 16.8771 27.016 16.8771 27.4467C16.8771 27.9166 17.0341 28.3473 17.3481 28.6605C17.6621 28.9346 18.0939 29.1303 18.5256 29.1303C18.9966 29.1303 19.4283 28.9346 19.7423 28.6605C20.0171 28.3473 20.2133 27.9166 20.2133 27.4467C20.2133 27.016 20.0171 26.5854 19.7423 26.2721C19.5853 26.1547 19.4283 26.0372 19.2321 25.9589V24.1187L23.2355 21.7695C23.5102 21.5737 23.628 21.1822 23.4317 20.9081C23.2748 20.5949 22.8823 20.4774 22.5683 20.6732L21.7048 21.1822L18.5256 23.0615ZM15.8567 25.5282C16.1706 25.724 16.2491 26.1155 16.0921 26.3896C15.8959 26.7028 15.5034 26.7811 15.1894 26.6245L13.1877 25.4108C12.8737 25.6848 12.4812 25.8414 12.0495 25.8414C11.6177 25.8414 11.186 25.6457 10.872 25.3324C10.5973 25.0584 10.401 24.6277 10.401 24.1578C10.401 23.688 10.5973 23.2965 10.872 22.9832C11.186 22.67 11.6177 22.4742 12.0495 22.4742C12.5205 22.4742 12.9522 22.67 13.2662 22.9832C13.5409 23.2965 13.7372 23.688 13.7372 24.1578C13.7372 24.197 13.7372 24.2362 13.7372 24.2753L15.8567 25.5282ZM21.2338 25.5282C20.9198 25.724 20.8021 26.1155 20.9983 26.3896C21.1945 26.7028 21.5478 26.7811 21.8618 26.6245L23.9027 25.4108C24.1775 25.6848 24.57 25.8414 25.0017 25.8414C25.4727 25.8414 25.9044 25.6457 26.1792 25.3324C26.4932 25.0584 26.6894 24.6277 26.6894 24.1578C26.6894 23.688 26.4932 23.2965 26.1792 22.9832C25.9044 22.67 25.4727 22.4742 25.0017 22.4742C24.5307 22.4742 24.1382 22.67 23.8242 22.9832C23.5102 23.2965 23.314 23.688 23.314 24.1578C23.314 24.197 23.314 24.2362 23.314 24.2753L21.2338 25.5282ZM18.5256 20.2033C19.0751 20.2425 19.6246 20.125 20.0171 19.8901L24.3737 17.306V19.8118C24.3737 20.1642 24.6485 20.4383 25.0017 20.4383C25.355 20.4383 25.6297 20.1642 25.6297 19.8118V16.5621C25.6297 16.5621 25.6297 16.5621 25.6297 16.5229L27.8277 15.2309C28.0632 15.0742 28.2594 14.9176 28.3771 14.7219C28.4949 14.4869 28.5734 14.2912 28.5341 14.0563C28.5341 13.8213 28.4949 13.6256 28.3771 13.3906C28.2201 13.1557 27.9847 12.96 27.6707 12.7642L20.1741 8.26154C19.7423 8.02662 19.1928 7.87001 18.6826 7.87001C18.6433 7.87001 18.5648 7.87001 18.5256 7.87001C18.4863 7.87001 18.4471 7.87001 18.4079 7.87001C17.8976 7.87001 17.3481 8.02662 16.9164 8.26154L9.38053 12.7642C9.06654 12.96 8.87029 13.1557 8.7133 13.3906C8.59555 13.6256 8.51705 13.8213 8.51705 14.0563C8.51705 14.2912 8.59555 14.4869 8.7133 14.7219C8.83105 14.9176 8.98804 15.0742 9.22354 15.2309L11.4215 16.5229C11.4215 16.5621 11.4215 16.5621 11.4215 16.5621V19.8118C11.4215 20.1642 11.7355 20.4383 12.0495 20.4383C12.4027 20.4383 12.7167 20.1642 12.7167 19.8118V17.306L17.0734 19.8901C17.4659 20.125 18.0154 20.2425 18.5256 20.2033ZM18.5256 9.12292C18.5648 9.12292 18.6041 9.12292 18.6433 9.12292C18.9573 9.12292 19.2713 9.20122 19.5068 9.35784L27.0427 13.8605C27.1604 13.8996 27.2389 13.9779 27.2782 14.0563C27.2782 14.0954 27.2389 14.1346 27.1997 14.1346L25.198 15.3092L20.0956 12.2552C19.8993 12.1377 19.6246 12.0594 19.3891 11.9811C19.1536 11.9028 18.8788 11.8637 18.6041 11.8637H18.5256H18.4863H18.4471C18.2116 11.8637 17.9369 11.9028 17.6621 11.9811C17.4266 12.0594 17.1911 12.1377 16.9556 12.2552L11.8532 15.3092L9.89077 14.1346C9.85152 14.1346 9.81228 14.0954 9.81228 14.0563C9.85152 13.9779 9.93002 13.8996 10.0478 13.8605L17.5836 9.35784C17.8191 9.20122 18.1331 9.12292 18.4471 9.12292C18.4863 9.12292 18.5256 9.12292 18.5256 9.12292ZM18.5256 13.1166C18.5648 13.1166 18.5648 13.1166 18.6041 13.1166C18.7611 13.1166 18.9181 13.1557 19.0751 13.1949C19.1928 13.234 19.3498 13.2732 19.4676 13.3515L23.9812 16.0531L19.3498 18.7938C19.1536 18.9113 18.8788 18.9504 18.5648 18.9504H18.5256H18.4863C18.1724 18.9504 17.8976 18.9113 17.7014 18.7938L13.1092 16.0531L17.6229 13.3515C17.7406 13.2732 17.8584 13.234 18.0154 13.1949C18.1724 13.1557 18.3294 13.1166 18.4863 13.1166H18.5256ZM24.57 23.7272C24.6877 23.6097 24.8447 23.5314 25.0017 23.5314C25.1587 23.5314 25.3157 23.6097 25.4335 23.7272C25.5512 23.8446 25.6297 24.0012 25.6297 24.1578C25.6297 24.3145 25.5512 24.4711 25.4335 24.5885C25.3157 24.706 25.1587 24.7843 25.0017 24.7843C24.8447 24.7843 24.6877 24.706 24.57 24.5885C24.4522 24.4711 24.3737 24.3145 24.3737 24.1578C24.3737 24.0012 24.4522 23.8446 24.57 23.7272ZM12.5205 23.7272C12.4027 23.6097 12.2457 23.5314 12.0495 23.5314C11.8925 23.5314 11.7355 23.6097 11.6177 23.7272C11.5392 23.8446 11.4607 24.0012 11.4607 24.1578C11.4607 24.3145 11.5392 24.4711 11.6177 24.5885C11.7355 24.706 11.8925 24.7843 12.0495 24.7843C12.2457 24.7843 12.4027 24.706 12.5205 24.5885C12.599 24.4711 12.6775 24.3145 12.6775 24.1578C12.6775 24.0012 12.599 23.8446 12.5205 23.7272ZM18.5256 28.0732C18.3686 28.0732 18.2116 27.9949 18.0939 27.9166C17.9761 27.7991 17.9369 27.6425 17.9369 27.4467C17.9369 27.2901 17.9761 27.1335 18.0939 27.016C18.2116 26.8986 18.3686 26.8594 18.5256 26.8594C18.7218 26.8594 18.8788 26.8986 18.9573 27.016C19.0751 27.1335 19.1536 27.2901 19.1536 27.4467C19.1536 27.6425 19.0751 27.7991 18.9573 27.9166C18.8788 27.9949 18.7218 28.0732 18.5256 28.0732Z" fill="white"/>
<path d="M57.5013 22.4363H50.5935V11.5124H47.1788V25.4119H57.5013V22.4363ZM151.228 17.2289V20.1262H155.507C154.996 21.6532 153.662 22.632 151.817 22.632C149.462 22.632 147.696 20.831 147.696 18.4818C147.696 16.1326 149.423 14.3315 151.699 14.3315C153.073 14.3315 154.408 14.7622 155.193 16.3283L158.529 15.3886C157.548 12.6479 154.8 11.1992 151.699 11.1992C147.539 11.1992 144.242 14.4098 144.242 18.4818C144.242 22.5537 147.539 25.7252 151.778 25.7252C155.978 25.7252 159 22.7103 159 18.4818C159 18.1294 158.961 17.7378 158.921 17.2289H151.228ZM143.025 22.4754H135.607V19.8521H142.358V17.0722H135.607V14.449H142.986V11.5124H132.153V25.4119H143.025V22.4754ZM118.573 11.5124V25.4119H122.027V21.1834H125.324C128.542 21.1834 130.583 19.2257 130.583 16.2892C130.583 13.431 128.621 11.5124 125.442 11.5124H118.573ZM122.027 18.286V14.449H125.049C126.384 14.449 127.208 15.232 127.208 16.3283C127.208 17.5421 126.384 18.286 125.049 18.286H122.027ZM116.218 11.5124H112.764V20.4003C112.764 21.7315 111.901 22.6712 110.606 22.6712C109.271 22.6712 108.486 21.8098 108.329 20.4003L104.993 21.0659C105.425 23.8458 107.426 25.7252 110.606 25.7252C113.981 25.7252 116.218 23.5326 116.218 20.4003V11.5124ZM99.6157 14.6839C98.2813 14.6839 97.1823 15.1537 96.3973 15.9759V14.9971H93.0611V25.4119H96.3973V20.596C96.3973 18.5601 97.2608 17.6595 98.556 17.6595C99.6157 17.6595 100.361 18.5209 100.361 19.7347V25.4119H103.658V19.0299C103.658 16.4066 102.049 14.6839 99.6157 14.6839ZM91.1379 14.8405C89.4109 14.8405 88.2727 15.741 87.527 16.9939V14.9971H84.1908V25.4119H87.527V22.1622C87.527 19.4606 88.8222 18.2468 91.1379 18.2468H91.7266L91.8836 14.9188C91.6481 14.8796 91.4126 14.8405 91.1379 14.8405ZM82.0321 14.9971H78.6959V15.8193C77.8717 15.1146 76.8119 14.6839 75.4382 14.6839C72.6908 14.6839 70.3358 16.9156 70.3358 20.2045C70.3358 23.5326 72.6908 25.7252 75.4382 25.7252C76.8119 25.7252 77.8717 25.3336 78.6959 24.5897V25.4119H82.0321V14.9971ZM76.1447 22.9061C74.6925 22.9061 73.6328 21.849 73.6328 20.2045C73.6328 18.5992 74.6925 17.5029 76.1447 17.5029C77.4792 17.5029 78.6959 18.5992 78.6959 20.2045C78.6959 21.849 77.4792 22.9061 76.1447 22.9061ZM69.3153 20.2045C69.2369 16.7982 66.8819 14.6839 63.899 14.6839C60.8768 14.6839 58.3648 16.9156 58.3648 20.2045C58.3648 23.5326 60.8768 25.7252 63.899 25.7252C66.2932 25.7252 68.1771 24.668 69.0799 22.4754L66.1362 21.8881C65.5474 22.9061 64.6839 23.0627 63.899 23.0627C62.7607 23.0627 61.8973 22.3188 61.6618 21.0659H69.3153V20.2045ZM63.899 17.3855C64.8802 17.3855 65.7044 17.8945 66.0184 19.0299H61.701C62.015 17.9728 62.9962 17.3855 63.899 17.3855Z" fill="#00002E"/>
</svg>
