<svg width="17" height="17" viewBox="0 0 17 17" fill="none" xmlns="http://www.w3.org/2000/svg">
<path d="M8.5 0C3.8063 0 0 3.8063 0 8.5C0 13.1937 3.8063 17 8.5 17C13.1937 17 17 13.1937 17 8.5C17 3.8063 13.1937 0 8.5 0ZM12.381 6.6274C12.3848 6.71105 12.3866 6.7951 12.3866 6.87953C12.3866 9.45757 10.4242 12.4304 6.83556 12.4305H6.83569H6.83556C5.73376 12.4305 4.70849 12.1076 3.84508 11.5542C3.99773 11.5722 4.15311 11.5811 4.31044 11.5811C5.22456 11.5811 6.0658 11.2693 6.73362 10.746C5.87955 10.7302 5.15945 10.1661 4.91095 9.39091C5.02988 9.41373 5.15219 9.42619 5.27761 9.42619C5.45569 9.42619 5.62819 9.40219 5.79213 9.35744C4.89941 9.17872 4.22691 8.38976 4.22691 7.44502C4.22691 7.4362 4.22691 7.42829 4.22717 7.42012C4.49007 7.56629 4.79072 7.65423 5.11082 7.66409C4.58696 7.31454 4.24261 6.71702 4.24261 6.04012C4.24261 5.68266 4.33923 5.34778 4.50681 5.05946C5.46892 6.23998 6.90677 7.01637 8.52827 7.09795C8.49481 6.95502 8.47756 6.80612 8.47756 6.65308C8.47756 5.57605 9.35135 4.70226 10.4288 4.70226C10.99 4.70226 11.4968 4.93948 11.8529 5.31873C12.2973 5.23105 12.7147 5.06866 13.0918 4.84519C12.9458 5.30057 12.6366 5.68266 12.2338 5.92429C12.6285 5.87708 13.0046 5.77242 13.3541 5.61703C13.0931 6.00834 12.7619 6.35204 12.381 6.6274Z" fill="#1DA1F2"/>
<path d="M8.3753 6.96277C6.85574 6.8419 5.5127 6.09584 4.6037 4.98049L4.48954 4.84041L4.39873 4.99664C4.22046 5.30337 4.11761 5.65984 4.11761 6.04012C4.11761 6.59694 4.33669 7.10332 4.6936 7.47627C4.5506 7.43728 4.4146 7.38131 4.28791 7.31087L4.10874 7.21125L4.10224 7.41615C4.10191 7.42633 4.10191 7.43596 4.10191 7.44427V7.44502C4.10191 8.25649 4.56807 8.95978 5.24739 9.30093C5.14081 9.29911 5.03648 9.28772 4.93451 9.26815L4.7276 9.22844L4.79192 9.42906C5.02271 10.149 5.63573 10.6979 6.3924 10.837C5.7941 11.2286 5.079 11.4561 4.31044 11.4561C4.15785 11.4561 4.00737 11.4475 3.85974 11.43L3.77762 11.6594C4.6604 12.2252 5.70895 12.5555 6.83556 12.5555C6.83561 12.5555 6.83565 12.5555 6.83569 12.5555C10.5077 12.5553 12.5116 9.51129 12.5116 6.87953C12.5116 6.81578 12.5106 6.7522 12.5085 6.68879C12.8787 6.41169 13.2012 6.07142 13.4581 5.68641L13.6975 5.3276L13.3034 5.50281C13.113 5.58742 12.9145 5.65652 12.7091 5.70891C12.9359 5.47974 13.1099 5.19808 13.2108 4.88333L13.3113 4.56978L13.028 4.73766C12.6817 4.94292 12.3003 5.09492 11.8947 5.18245C11.5193 4.80874 11.0005 4.57726 10.4288 4.57726C9.28233 4.57726 8.35256 5.507 8.35256 6.65308C8.35256 6.75816 8.36023 6.86158 8.3753 6.96277ZM0.125 8.5C0.125 3.87533 3.87533 0.125 8.5 0.125C13.1247 0.125 16.875 3.87533 16.875 8.5C16.875 13.1247 13.1247 16.875 8.5 16.875C3.87533 16.875 0.125 13.1247 0.125 8.5Z" stroke="black" stroke-opacity="0.25" stroke-width="0.25"/>
</svg>
