<svg width="27" height="25" viewBox="0 0 27 25" fill="none" xmlns="http://www.w3.org/2000/svg">
<path d="M24.7569 1L15.002 8.18993L16.8059 3.94797L24.7569 1Z" fill="#E2761B" stroke="#E2761B" stroke-linecap="round" stroke-linejoin="round"/>
<path d="M2.2334 1L11.9099 8.25804L10.1942 3.94797L2.2334 1Z" fill="#E4761B" stroke="#E4761B" stroke-linecap="round" stroke-linejoin="round"/>
<path d="M21.2504 17.6663L18.6523 21.6163L24.2112 23.1341L25.8092 17.7538L21.2504 17.6663Z" fill="#E4761B" stroke="#E4761B" stroke-linecap="round" stroke-linejoin="round"/>
<path d="M1.20801 17.7538L2.79625 23.1341L8.35511 21.6163L5.75706 17.6663L1.20801 17.7538Z" fill="#E4761B" stroke="#E4761B" stroke-linecap="round" stroke-linejoin="round"/>
<path d="M8.04317 10.9919L6.49414 13.3172L12.0138 13.5605L11.8177 7.67426L8.04317 10.9919Z" fill="#E4761B" stroke="#E4761B" stroke-linecap="round" stroke-linejoin="round"/>
<path d="M18.953 10.992L15.1294 7.6062L15.002 13.5605L20.5118 13.3173L18.953 10.992Z" fill="#E4761B" stroke="#E4761B" stroke-linecap="round" stroke-linejoin="round"/>
<path d="M8.34961 21.6163L11.6634 20.011L8.80059 17.7927L8.34961 21.6163Z" fill="#E4761B" stroke="#E4761B" stroke-linecap="round" stroke-linejoin="round"/>
<path d="M15.3193 20.011L18.6429 21.6163L18.1821 17.7927L15.3193 20.011Z" fill="#E4761B" stroke="#E4761B" stroke-linecap="round" stroke-linejoin="round"/>
<path d="M18.6536 21.6163L15.3301 20.011L15.5948 22.1612L15.5654 23.066L18.6536 21.6163Z" fill="#D7C1B3" stroke="#D7C1B3" stroke-linecap="round" stroke-linejoin="round"/>
<path d="M8.36035 21.6163L11.4486 23.066L11.429 22.1612L11.6741 20.011L8.36035 21.6163Z" fill="#D7C1B3" stroke="#D7C1B3" stroke-linecap="round" stroke-linejoin="round"/>
<path d="M11.4913 16.3723L8.72656 15.5647L10.6776 14.6794L11.4913 16.3723Z" fill="#233447" stroke="#233447" stroke-linecap="round" stroke-linejoin="round"/>
<path d="M15.502 16.3723L16.3157 14.6794L18.2765 15.5647L15.502 16.3723Z" fill="#233447" stroke="#233447" stroke-linecap="round" stroke-linejoin="round"/>
<path d="M8.3588 21.6163L8.82939 17.6663L5.76074 17.7538L8.3588 21.6163Z" fill="#CD6116" stroke="#CD6116" stroke-linecap="round" stroke-linejoin="round"/>
<path d="M18.1875 17.6663L18.6581 21.6163L21.2561 17.7538L18.1875 17.6663Z" fill="#CD6116" stroke="#CD6116" stroke-linecap="round" stroke-linejoin="round"/>
<path d="M20.5118 13.3173L15.002 13.5605L15.5118 16.3723L16.3255 14.6794L18.2863 15.5647L20.5118 13.3173Z" fill="#CD6116" stroke="#CD6116" stroke-linecap="round" stroke-linejoin="round"/>
<path d="M8.72847 15.5647L10.6893 14.6794L11.4932 16.3723L12.0128 13.5605L6.49316 13.3173L8.72847 15.5647Z" fill="#CD6116" stroke="#CD6116" stroke-linecap="round" stroke-linejoin="round"/>
<path d="M6.49316 13.3173L8.8069 17.7927L8.72847 15.5647L6.49316 13.3173Z" fill="#E4751F" stroke="#E4751F" stroke-linecap="round" stroke-linejoin="round"/>
<path d="M18.2855 15.5647L18.1875 17.7927L20.511 13.3173L18.2855 15.5647Z" fill="#E4751F" stroke="#E4751F" stroke-linecap="round" stroke-linejoin="round"/>
<path d="M12.0177 13.5605L11.498 16.3722L12.1451 19.6899L12.2922 15.3215L12.0177 13.5605Z" fill="#E4751F" stroke="#E4751F" stroke-linecap="round" stroke-linejoin="round"/>
<path d="M14.9971 13.5605L14.7324 15.3118L14.8501 19.6899L15.5069 16.3722L14.9971 13.5605Z" fill="#E4751F" stroke="#E4751F" stroke-linecap="round" stroke-linejoin="round"/>
<path d="M15.5123 16.3722L14.8555 19.6899L15.3261 20.011L18.1888 17.7927L18.2869 15.5647L15.5123 16.3722Z" fill="#F6851B" stroke="#F6851B" stroke-linecap="round" stroke-linejoin="round"/>
<path d="M8.72656 15.5647L8.80499 17.7927L11.6678 20.011L12.1383 19.6899L11.4913 16.3722L8.72656 15.5647Z" fill="#F6851B" stroke="#F6851B" stroke-linecap="round" stroke-linejoin="round"/>
<path d="M15.5546 23.066L15.584 22.1612L15.3389 21.9471H11.6428L11.4173 22.1612L11.4369 23.066L8.34863 21.6163L9.42707 22.492L11.6134 24H15.3683L17.5644 22.492L18.6428 21.6163L15.5546 23.066Z" fill="#C0AD9E" stroke="#C0AD9E" stroke-linecap="round" stroke-linejoin="round"/>
<path d="M15.3268 20.011L14.8562 19.6899H12.1405L11.6699 20.011L11.4248 22.1612L11.6503 21.9471H15.3464L15.5915 22.1612L15.3268 20.011Z" fill="#161616" stroke="#161616" stroke-linecap="round" stroke-linejoin="round"/>
<path d="M25.1616 8.65694L25.9949 4.68739L24.7498 1L15.3184 7.9467L18.9458 10.992L24.0733 12.4805L25.2106 11.1671L24.7204 10.8168L25.5047 10.1066L24.8969 9.63959L25.6812 9.04611L25.1616 8.65694Z" fill="#763D16" stroke="#763D16" stroke-linecap="round" stroke-linejoin="round"/>
<path d="M1 4.68739L1.83334 8.65694L1.30392 9.04611L2.08824 9.63959L1.4902 10.1066L2.27452 10.8168L1.78432 11.1671L2.91178 12.4805L8.03926 10.992L11.6667 7.9467L2.2353 1L1 4.68739Z" fill="#763D16" stroke="#763D16" stroke-linecap="round" stroke-linejoin="round"/>
<path d="M24.0797 12.4805L18.9522 10.9919L20.511 13.3172L18.1875 17.7927L21.2463 17.7538H25.8052L24.0797 12.4805Z" fill="#F6851B" stroke="#F6851B" stroke-linecap="round" stroke-linejoin="round"/>
<path d="M8.04041 10.9919L2.91292 12.4805L1.20703 17.7538H5.75608L8.80512 17.7927L6.49138 13.3172L8.04041 10.9919Z" fill="#F6851B" stroke="#F6851B" stroke-linecap="round" stroke-linejoin="round"/>
<path d="M14.9954 13.5605L15.3189 7.94673L16.8091 3.948H10.1914L11.662 7.94673L12.0051 13.5605L12.1228 15.3312L12.1326 19.69H14.8483L14.8679 15.3312L14.9954 13.5605Z" fill="#F6851B" stroke="#F6851B" stroke-linecap="round" stroke-linejoin="round"/>
</svg>
